<?xml version="1.0" encoding="utf-8"?>
<!-- Generator: Adobe Illustrator 16.0.0, SVG Export Plug-In . SVG Version: 6.00 Build 0)  -->
<!DOCTYPE svg PUBLIC "-//W3C//DTD SVG 1.1//EN" "http://www.w3.org/Graphics/SVG/1.1/DTD/svg11.dtd">
<svg version="1.1" id="Layer_1" xmlns="http://www.w3.org/2000/svg" xmlns:xlink="http://www.w3.org/1999/xlink" x="0px" y="0px"
	 width="1000px" height="300px" viewBox="0 0 1000 300" enable-background="new 0 0 1000 300" xml:space="preserve">
<g>
	<g>
		<g>
			<g>
				<g>
					<g>
						<path fill="#1D2123" d="M68.076,100.199c9.975,0,18.08,8.099,18.08,18.075c0,9.976-8.105,18.076-18.08,18.076
							c-9.973,0-18.076-8.101-18.076-18.076C50,108.298,58.104,100.199,68.076,100.199z M52.49,150.069h31.174v100.983H52.49
							V150.069z"/>
					</g>
				</g>
				<g>
					<g>
						<path fill="#1D2123" d="M102.722,150.069h29.923v13.714h0.413c4.158-7.897,14.34-16.21,29.507-16.21
							c31.585,0,37.405,20.781,37.405,47.795v55.685h-31.174v-49.451c0-11.639-0.202-26.598-16.204-26.598
							c-16.209,0-18.701,12.676-18.701,25.764v50.285h-31.169V150.069z"/>
					</g>
				</g>
				<g>
					<g>
						<path fill="#1D2123" d="M285.856,175.004h-27.431v33.659c0,10.805,1.246,18.701,14.754,18.701
							c3.327,0,9.972-0.411,12.677-2.907v25.977c-6.859,2.491-14.547,3.117-21.817,3.117c-20.782,0-36.782-8.522-36.782-30.549
							v-47.998H207.31v-24.935h19.947v-29.923h31.169v29.923h27.431V175.004z"/>
					</g>
				</g>
				<g>
					<g>
						<path fill="#1D2123" d="M391.96,233.6c-9.976,12.676-26.391,19.951-42.598,19.951c-31.171,0-56.105-20.78-56.105-52.991
							c0-32.205,24.935-52.986,56.105-52.986c29.091,0,47.376,20.781,47.376,52.986v9.768h-72.313
							c2.498,11.847,11.431,19.534,23.482,19.534c10.182,0,17.039-5.196,22.235-12.259L391.96,233.6z M365.569,189.134
							c0.209-10.394-7.896-19.118-19.118-19.118c-13.711,0-21.191,9.351-22.026,19.118H365.569z"/>
					</g>
				</g>
				<g>
					<g>
						<path fill="#1D2123" d="M411.648,150.069h31.168v16.205h0.417c6.645-12.26,15.374-18.701,29.087-18.701
							c3.535,0,7.48,0.208,10.389,1.041v28.465c-4.364-1.247-8.726-2.075-13.297-2.075c-23.689,0-26.596,13.713-26.596,33.868
							v42.181h-31.168V150.069z"/>
					</g>
				</g>
				<g>
					<g>
						<path fill="#1D2123" d="M493.609,105.832h31.169v145.221h-31.169V105.832z"/>
					</g>
				</g>
				<g>
					<g>
						<path fill="#1D2123" d="M603.945,238.379h-0.414c-6.859,10.805-19.329,15.172-32.004,15.172
							c-18.905,0-35.947-10.811-35.947-31.174c0-34.906,42.391-35.531,68.365-35.531c0-11.014-9.141-18.075-19.95-18.075
							c-10.18,0-18.701,4.57-25.347,12.05l-16.625-17.037c11.429-10.806,28.051-16.21,44.467-16.21
							c36.365,0,46.129,18.493,46.129,52.156v51.323h-28.674V238.379z M596.258,206.794c-9.559,0-30.755,0.833-30.755,14.546
							c0,7.48,7.894,11.013,14.753,11.013c12.261,0,23.689-6.442,23.689-18.909v-6.649H596.258z"/>
					</g>
				</g>
				<g>
					<g>
						<path fill="#1D2123" d="M650.079,150.069h29.923v13.714h0.416c4.154-7.897,14.339-16.21,29.506-16.21
							c31.585,0,37.402,20.781,37.402,47.795v55.685h-31.168v-49.451c0-11.639-0.21-26.598-16.209-26.598
							c-16.206,0-18.701,12.676-18.701,25.764v50.285h-31.169V150.069z"/>
					</g>
				</g>
				<g>
					<g>
						<path fill="#1D2123" d="M870.93,251.053h-28.676v-13.295h-0.411c-4.781,7.271-16.837,15.793-30.965,15.793
							c-29.923,0-49.663-21.615-49.663-52.158c0-28.052,17.455-53.819,46.132-53.819c12.881,0,24.935,3.532,31.998,13.301h0.417
							v-55.042h31.168V251.053z M817.318,175.004c-15.583,0-24.935,10.388-24.935,25.556c0,15.172,9.352,25.56,24.935,25.56
							c15.584,0,24.936-10.388,24.936-25.56C842.254,185.392,832.902,175.004,817.318,175.004z"/>
					</g>
				</g>
			</g>
		</g>
	</g>
	<rect x="870.93" y="66.219" fill="#B50000" width="39.539" height="39.533"/>
	<rect x="910.461" y="105.752" fill="#B50000" width="39.539" height="39.53"/>
	<rect x="910.469" y="46.449" fill="#E72933" width="19.762" height="19.77"/>
</g>
</svg>
